{
  "accessors": [
    {
      "bufferView": 2,
      "componentType": 5126,
      "count": 3138,
      "max": [
        92.12960815429688,
        227.27215576171875,
        302.95928955078125
      ],
      "min": [
        -127.04529571533203,
        -0.23426054418087006,
        -300.7742004394531
      ],
      "type": "VEC3"
    },
    {
      "bufferView": 2,
      "byteOffset": 37656,
      "componentType": 5126,
      "count": 3138,
      "max": [
        0.9989503026008606,
        0.9999785423278809,
        1.0
      ],
      "min": [
        -1.0,
        -0.9999794960021973,
        -1.0
      ],
      "type": "VEC3"
    },
    {
      "bufferView": 3,
      "componentType": 5126,
      "count": 3138,
      "max": [
        1.0,
        1.0,
        1.0,
        1.0
      ],
      "min": [
        -0.9999828338623047,
        -1.0,
        -1.0,
        1.0
      ],
      "type": "VEC4"
    },
    {
      "bufferView": 1,
      "componentType": 5126,
      "count": 3138,
      "max": [
        0.8105672597885132,
        0.9980080127716064
      ],
      "min": [
        0.0016178988153114915,
        0.0019920319318771362
      ],
      "type": "VEC2"
    },
    {
      "bufferView": 1,
      "byteOffset": 25104,
      "componentType": 5126,
      "count": 3138,
      "max": [
        0.8105672597885132,
        0.9980080127716064
      ],
      "min": [
        0.0016178988153114915,
        0.0019920319318771362
      ],
      "type": "VEC2"
    },
    {
      "bufferView": 0,
      "componentType": 5125,
      "count": 9504,
      "type": "SCALAR"
    }
  ],
  "asset": {
    "extras": {
      "author": "bez_glaza (https://sketchfab.com/bez_glaza)",
      "license": "CC-BY-4.0 (http://creativecommons.org/licenses/by/4.0/)",
      "source": "https://sketchfab.com/3d-models/bench-d0af244b3ab34d3b978deffac44d1a26",
      "title": "Bench"
    },
    "generator": "Sketchfab-12.64.0",
    "version": "2.0"
  },
  "bufferViews": [
    {
      "buffer": 0,
      "byteLength": 38016,
      "name": "floatBufferViews",
      "target": 34963
    },
    {
      "buffer": 0,
      "byteLength": 50208,
      "byteOffset": 38016,
      "byteStride": 8,
      "name": "floatBufferViews",
      "target": 34962
    },
    {
      "buffer": 0,
      "byteLength": 75312,
      "byteOffset": 88224,
      "byteStride": 12,
      "name": "floatBufferViews",
      "target": 34962
    },
    {
      "buffer": 0,
      "byteLength": 50208,
      "byteOffset": 163536,
      "byteStride": 16,
      "name": "floatBufferViews",
      "target": 34962
    }
  ],
  "buffers": [
    {
      "byteLength": 213744,
      "uri": "scene.bin"
    }
  ],
  "images": [
    {
      "uri": "textures/bench_mat_baseColor.png"
    },
    {
      "uri": "textures/bench_mat_metallicRoughness.png"
    },
    {
      "uri": "textures/bench_mat_normal.png"
    }
  ],
  "materials": [
    {
      "doubleSided": true,
      "name": "bench_mat",
      "normalTexture": {
        "index": 2
      },
      "occlusionTexture": {
        "index": 1
      },
      "pbrMetallicRoughness": {
        "baseColorTexture": {
          "index": 0
        },
        "metallicRoughnessTexture": {
          "index": 1
        },
        "roughnessFactor": 0.0
      }
    }
  ],
  "meshes": [
    {
      "name": "Bench__bench_mat_0",
      "primitives": [
        {
          "attributes": {
            "NORMAL": 1,
            "POSITION": 0,
            "TANGENT": 2,
            "TEXCOORD_0": 3,
            "TEXCOORD_1": 4
          },
          "indices": 5,
          "material": 0,
          "mode": 4
        }
      ]
    }
  ],
  "nodes": [
    {
      "children": [
        1
      ],
      "matrix": [
        1.0,
        0.0,
        0.0,
        0.0,
        0.0,
        2.220446049250313e-16,
        -1.0,
        0.0,
        0.0,
        1.0,
        2.220446049250313e-16,
        0.0,
        0.0,
        0.0,
        0.0,
        1.0
      ],
      "name": "Sketchfab_model"
    },
    {
      "children": [
        2
      ],
      "matrix": [
        1.0,
        0.0,
        0.0,
        0.0,
        0.0,
        0.0,
        1.0,
        0.0,
        0.0,
        -1.0,
        0.0,
        0.0,
        0.0,
        0.0,
        0.0,
        1.0
      ],
      "name": "d4ab0932f7d84d108d19218ec3f79513.fbx"
    },
    {
      "children": [
        3
      ],
      "name": "RootNode"
    },
    {
      "children": [
        4
      ],
      "matrix": [
        0.027053259313106537,
        0.0,
        0.0,
        0.0,
        0.0,
        0.027053259313106537,
        0.0,
        0.0,
        0.0,
        0.0,
        0.027053259313106537,
        0.0,
        0.0,
        0.0,
        0.0,
        1.0
      ],
      "name": "Bench_"
    },
    {
      "mesh": 0,
      "name": "Bench__bench_mat_0"
    }
  ],
  "samplers": [
    {
      "magFilter": 9729,
      "minFilter": 9987,
      "wrapS": 10497,
      "wrapT": 10497
    }
  ],
  "scene": 0,
  "scenes": [
    {
      "name": "Sketchfab_Scene",
      "nodes": [
        0
      ]
    }
  ],
  "textures": [
    {
      "sampler": 0,
      "source": 0
    },
    {
      "sampler": 0,
      "source": 1
    },
    {
      "sampler": 0,
      "source": 2
    }
  ]
}
